<?xml version="1.0" encoding="UTF-8"?>
<svg width="746" height="310.4" version="1.1" viewBox="0 0 746 310.4" xmlns="http://www.w3.org/2000/svg">
	<g class="graph" transform="translate(4,306.4)">
		<polygon points="742 -306.4 742 4 -4 4 -4 -306.4" fill="#fff" stroke="transparent"/>
		<g class="node">
			<title>n1</title>
			<ellipse cx="291" cy="-284.4" rx="27" ry="18" fill="none" stroke="#000"/>
			<text x="291" y="-280.20001" font-family="Times, serif" font-size="14px" text-anchor="middle">n1</text>
		</g>
		<g class="node">
			<title>n2</title>
			<ellipse cx="148" cy="-195.6" rx="27" ry="18" fill="none" stroke="#000"/>
			<text x="148" y="-191.39999" font-family="Times, serif" font-size="14px" text-anchor="middle">n2</text>
		</g>
		<g class="edge">
			<title>n1--n2</title>
			<path d="m271.28-271.82c-11.49 6.78-26.24 15.53-39.28 23.42-22.43 13.57-48.05 29.42-65.04 39.98" fill="none" stroke="#000"/>
			<text x="239" y="-235.8" font-family="Times, serif" font-size="14px" text-anchor="middle">00</text>
		</g>
		<g class="node">
			<title>n3</title>
			<ellipse cx="220" cy="-195.6" rx="27" ry="18" fill="none" stroke="#000"/>
			<text x="220" y="-191.39999" font-family="Times, serif" font-size="14px" text-anchor="middle">n3</text>
		</g>
		<g class="edge">
			<title>n1--n3</title>
			<path d="m278.63-268.28c-12.95 15.83-33.18 40.56-46.17 56.44" fill="none" stroke="#000"/>
			<text x="269" y="-235.8" font-family="Times, serif" font-size="14px" text-anchor="middle">01</text>
		</g>
		<g class="node">
			<title>n4</title>
			<ellipse cx="351" cy="-195.6" rx="27" ry="18" fill="none" stroke="#000"/>
			<text x="351" y="-191.39999" font-family="Times, serif" font-size="14px" text-anchor="middle">n4</text>
		</g>
		<g class="edge">
			<title>n1--n4</title>
			<path d="m302-267.48c10.9 15.76 27.47 39.73 38.27 55.35" fill="none" stroke="#000"/>
			<text x="334" y="-235.8" font-family="Times, serif" font-size="14px" text-anchor="middle">10</text>
		</g>
		<g class="node">
			<title>n5</title>
			<ellipse cx="567" cy="-195.6" rx="27" ry="18" fill="none" stroke="#000"/>
			<text x="567" y="-191.39999" font-family="Times, serif" font-size="14px" text-anchor="middle">n5</text>
		</g>
		<g class="edge">
			<title>n1--n5</title>
			<path d="m315.01-275.85c52.2 16.42 175.51 55.2 227.84 71.65" fill="none" stroke="#000"/>
			<text x="460" y="-235.8" font-family="Times, serif" font-size="14px" text-anchor="middle">11</text>
		</g>
		<g class="node">
			<title>n6</title>
			<ellipse cx="63" cy="-106.8" rx="27" ry="18" fill="none" stroke="#000"/>
			<text x="63" y="-102.6" font-family="Times, serif" font-size="14px" text-anchor="middle">n6</text>
		</g>
		<g class="edge">
			<title>n3--n6</title>
			<path d="m199.02-184.15c-13.52 6.81-31.42 16-47.02 24.55-24.3 13.31-51.8 29.5-69.72 40.19" fill="none" stroke="#000"/>
			<text x="159" y="-147" font-family="Times, serif" font-size="14px" text-anchor="middle">00</text>
		</g>
		<g class="node">
			<title>n7</title>
			<ellipse cx="135" cy="-106.8" rx="27" ry="18" fill="none" stroke="#000"/>
			<text x="135" y="-102.6" font-family="Times, serif" font-size="14px" text-anchor="middle">n7</text>
		</g>
		<g class="edge">
			<title>n3--n7</title>
			<path d="m205.58-179.88c-15.72 16.06-40.73 41.6-56.37 57.57" fill="none" stroke="#000"/>
			<text x="193" y="-147" font-family="Times, serif" font-size="14px" text-anchor="middle">01</text>
		</g>
		<g class="node">
			<title>n8</title>
			<ellipse cx="207" cy="-106.8" rx="27" ry="18" fill="none" stroke="#000"/>
			<text x="207" y="-102.6" font-family="Times, serif" font-size="14px" text-anchor="middle">n8</text>
		</g>
		<g class="edge">
			<title>n3--n8</title>
			<path d="m217.43-177.45c-2.28 15.22-5.59 37.33-7.87 52.54" fill="none" stroke="#000"/>
			<text x="222" y="-147" font-family="Times, serif" font-size="14px" text-anchor="middle">10</text>
		</g>
		<g class="node">
			<title>n9</title>
			<ellipse cx="279" cy="-106.8" rx="27" ry="18" fill="none" stroke="#000"/>
			<text x="279" y="-102.6" font-family="Times, serif" font-size="14px" text-anchor="middle">n9</text>
		</g>
		<g class="edge">
			<title>n3--n9</title>
			<path d="m230.82-178.68c10.65 15.66 26.81 39.43 37.43 55.06" fill="none" stroke="#000"/>
			<text x="262" y="-147" font-family="Times, serif" font-size="14px" text-anchor="middle">11</text>
		</g>
		<g class="node">
			<title>n10</title>
			<ellipse cx="351" cy="-106.8" rx="27" ry="18" fill="none" stroke="#000"/>
			<text x="351" y="-102.6" font-family="Times, serif" font-size="14px" text-anchor="middle">n10</text>
		</g>
		<g class="edge">
			<title>n4--n10</title>
			<path d="m351-177.45v52.54" fill="none" stroke="#000"/>
			<text x="354.5" y="-147" font-family="Times, serif" font-size="14px" text-anchor="middle">0</text>
		</g>
		<g class="node">
			<title>n11</title>
			<ellipse cx="423" cy="-106.8" rx="27" ry="18" fill="none" stroke="#000"/>
			<text x="423" y="-102.6" font-family="Times, serif" font-size="14px" text-anchor="middle">n11</text>
		</g>
		<g class="edge">
			<title>n4--n11</title>
			<path d="m363.54-179.48c13.14 15.83 33.65 40.56 46.82 56.44" fill="none" stroke="#000"/>
			<text x="397.5" y="-147" font-family="Times, serif" font-size="14px" text-anchor="middle">1</text>
		</g>
		<g class="node">
			<title>n12</title>
			<ellipse cx="495" cy="-106.8" rx="27" ry="18" fill="none" stroke="#000"/>
			<text x="495" y="-102.6" font-family="Times, serif" font-size="14px" text-anchor="middle">n12</text>
		</g>
		<g class="edge">
			<title>n5--n12</title>
			<path d="m554.46-179.48c-13.14 15.83-33.65 40.56-46.82 56.44" fill="none" stroke="#000"/>
			<text x="544" y="-147" font-family="Times, serif" font-size="14px" text-anchor="middle">00</text>
		</g>
		<g class="node">
			<title>n13</title>
			<ellipse cx="567" cy="-106.8" rx="27" ry="18" fill="none" stroke="#000"/>
			<text x="567" y="-102.6" font-family="Times, serif" font-size="14px" text-anchor="middle">n13</text>
		</g>
		<g class="edge">
			<title>n5--n13</title>
			<path d="m567-177.45v52.54" fill="none" stroke="#000"/>
			<text x="574" y="-147" font-family="Times, serif" font-size="14px" text-anchor="middle">01</text>
		</g>
		<g class="node">
			<title>n14</title>
			<ellipse cx="639" cy="-106.8" rx="27" ry="18" fill="none" stroke="#000"/>
			<text x="639" y="-102.6" font-family="Times, serif" font-size="14px" text-anchor="middle">n14</text>
		</g>
		<g class="edge">
			<title>n5--n14</title>
			<path d="m579.54-179.48c13.14 15.83 33.65 40.56 46.82 56.44" fill="none" stroke="#000"/>
			<text x="616" y="-147" font-family="Times, serif" font-size="14px" text-anchor="middle">10</text>
		</g>
		<g class="node">
			<title>n15</title>
			<ellipse cx="711" cy="-106.8" rx="27" ry="18" fill="none" stroke="#000"/>
			<text x="711" y="-102.6" font-family="Times, serif" font-size="14px" text-anchor="middle">n15</text>
		</g>
		<g class="edge">
			<title>n5--n15</title>
			<path d="m586.8-183.21c11.73 6.78 26.86 15.61 40.2 23.61 22.48 13.48 48.09 29.35 65.07 39.94" fill="none" stroke="#000"/>
			<text x="659" y="-147" font-family="Times, serif" font-size="14px" text-anchor="middle">11</text>
		</g>
		<g class="node">
			<title>n16</title>
			<ellipse cx="27" cy="-18" rx="27" ry="18" fill="none" stroke="#000"/>
			<text x="27" y="-13.8" font-family="Times, serif" font-size="14px" text-anchor="middle">n16</text>
		</g>
		<g class="edge">
			<title>n6--n16</title>
			<path d="m56.06-89.06c-6.38 15.37-15.77 38.02-22.14 53.38" fill="none" stroke="#000"/>
			<text x="52.5" y="-58.200001" font-family="Times, serif" font-size="14px" text-anchor="middle">0</text>
		</g>
		<g class="node">
			<title>n17</title>
			<ellipse cx="99" cy="-18" rx="27" ry="18" fill="none" stroke="#000"/>
			<text x="99" y="-13.8" font-family="Times, serif" font-size="14px" text-anchor="middle">n17</text>
		</g>
		<g class="edge">
			<title>n6--n17</title>
			<path d="m69.94-89.06c6.38 15.37 15.77 38.02 22.14 53.38" fill="none" stroke="#000"/>
			<text x="88.5" y="-58.200001" font-family="Times, serif" font-size="14px" text-anchor="middle">1</text>
		</g>
	</g>
</svg>
