<?xml version="1.0" encoding="UTF-8"?>
<svg width="418.67" height="650.67" version="1.1" viewBox="0 0 314 488" xmlns="http://www.w3.org/2000/svg">
	<g class="graph" transform="translate(4,484)">
		<polygon points="310 -484 310 4 -4 4 -4 -484" fill="#fff" stroke="transparent"/>
		<g class="node">
			<title>0</title>
			<ellipse cx="171" cy="-462" rx="27" ry="18" fill="none" stroke="#000"/>
		</g>
		<g class="node">
			<title>1</title>
			<ellipse cx="135" cy="-373.2" rx="27" ry="18" fill="#add8e6" stroke="#add8e6"/>
			<text x="135" y="-369" font-family="Times, serif" font-size="14px" text-anchor="middle">a</text>
		</g>
		<g class="node">
			<title>2</title>
			<ellipse cx="207" cy="-373.2" rx="27" ry="18" fill="#add8e6" stroke="#add8e6"/>
			<text x="207" y="-369" font-family="Times, serif" font-size="14px" text-anchor="middle">b</text>
		</g>
		<g class="edge">
			<title>0--1</title>
			<path d="m164.06-444.26c-6.38 15.37-15.77 38.02-22.14 53.38" fill="none" stroke="#000"/>
			<text x="160.5" y="-413.39999" font-family="Times, serif" font-size="14px" text-anchor="middle">0</text>
		</g>
		<g class="edge">
			<title>0--2</title>
			<path d="m177.94-444.26c6.38 15.37 15.77 38.02 22.14 53.38" fill="none" stroke="#000"/>
			<text x="196.5" y="-413.39999" font-family="Times, serif" font-size="14px" text-anchor="middle">1</text>
		</g>
		<g class="node">
			<title>3</title>
			<ellipse cx="63" cy="-284.4" rx="27" ry="18" fill="none" stroke="#000"/>
		</g>
		<g class="node">
			<title>4</title>
			<ellipse cx="135" cy="-284.4" rx="27" ry="18" fill="#add8e6" stroke="#add8e6"/>
			<text x="135" y="-280.20001" font-family="Times, serif" font-size="14px" text-anchor="middle">c</text>
		</g>
		<g class="edge">
			<title>1--3</title>
			<path d="m122.46-357.08c-13.14 15.83-33.65 40.56-46.82 56.44" fill="none" stroke="#000"/>
			<text x="109.5" y="-324.60001" font-family="Times, serif" font-size="14px" text-anchor="middle">0</text>
		</g>
		<g class="node">
			<title>5</title>
			<ellipse cx="207" cy="-284.4" rx="27" ry="18" fill="#add8e6" stroke="#add8e6"/>
			<text x="207" y="-280.20001" font-family="Times, serif" font-size="14px" text-anchor="middle">d</text>
		</g>
		<g class="node">
			<title>6</title>
			<ellipse cx="279" cy="-284.4" rx="27" ry="18" fill="none" stroke="#000"/>
		</g>
		<g class="edge">
			<title>1--4</title>
			<path d="m135-355.05v52.54" fill="none" stroke="#000"/>
			<text x="138.5" y="-324.60001" font-family="Times, serif" font-size="14px" text-anchor="middle">1</text>
		</g>
		<g class="edge">
			<title>2--5</title>
			<path d="m207-355.05v52.54" fill="none" stroke="#000"/>
			<text x="210.5" y="-324.60001" font-family="Times, serif" font-size="14px" text-anchor="middle">0</text>
		</g>
		<g class="edge">
			<title>2--6</title>
			<path d="m219.54-357.08c13.14 15.83 33.65 40.56 46.82 56.44" fill="none" stroke="#000"/>
			<text x="252.5" y="-324.60001" font-family="Times, serif" font-size="14px" text-anchor="middle">1</text>
		</g>
		<g class="node">
			<title>7</title>
			<ellipse cx="63" cy="-195.6" rx="27" ry="18" fill="#add8e6" stroke="#add8e6"/>
			<text x="63" y="-191.39999" font-family="Times, serif" font-size="14px" text-anchor="middle">e</text>
		</g>
		<g class="node">
			<title>8</title>
			<ellipse cx="279" cy="-195.6" rx="27" ry="18" fill="#add8e6" stroke="#add8e6"/>
			<text x="279" y="-191.39999" font-family="Times, serif" font-size="14px" text-anchor="middle">f</text>
		</g>
		<g class="edge">
			<title>3--7</title>
			<path d="m63-266.25v52.54" fill="none" stroke="#000"/>
			<text x="66.5" y="-235.8" font-family="Times, serif" font-size="14px" text-anchor="middle">0</text>
		</g>
		<g class="edge">
			<title>6--8</title>
			<path d="m279-266.25v52.54" fill="none" stroke="#000"/>
			<text x="282.5" y="-235.8" font-family="Times, serif" font-size="14px" text-anchor="middle">1</text>
		</g>
		<g class="node">
			<title>9</title>
			<ellipse cx="63" cy="-106.8" rx="27" ry="18" fill="none" stroke="#000"/>
		</g>
		<g class="node">
			<title>10</title>
			<ellipse cx="27" cy="-18" rx="27" ry="18" fill="#add8e6" stroke="#add8e6"/>
			<text x="27" y="-13.8" font-family="Times, serif" font-size="14px" text-anchor="middle">g</text>
		</g>
		<g class="node">
			<title>11</title>
			<ellipse cx="99" cy="-18" rx="27" ry="18" fill="#add8e6" stroke="#add8e6"/>
			<text x="99" y="-13.8" font-family="Times, serif" font-size="14px" text-anchor="middle">h</text>
		</g>
		<g class="edge">
			<title>7--9</title>
			<path d="m63-177.45v52.54" fill="none" stroke="#000"/>
			<text x="66.5" y="-147" font-family="Times, serif" font-size="14px" text-anchor="middle">1</text>
		</g>
		<g class="edge">
			<title>9--10</title>
			<path d="m56.06-89.06c-6.38 15.37-15.77 38.02-22.14 53.38" fill="none" stroke="#000"/>
			<text x="52.5" y="-58.200001" font-family="Times, serif" font-size="14px" text-anchor="middle">0</text>
		</g>
		<g class="edge">
			<title>9--11</title>
			<path d="m69.94-89.06c6.38 15.37 15.77 38.02 22.14 53.38" fill="none" stroke="#000"/>
			<text x="88.5" y="-58.200001" font-family="Times, serif" font-size="14px" text-anchor="middle">1</text>
		</g>
	</g>
</svg>
