<?xml version="1.0" encoding="UTF-8"?>
<svg width="152.83" height="168.49" version="1.1" xmlns="http://www.w3.org/2000/svg">
	<defs>
		<marker id="a" overflow="visible" orient="auto">
			<path transform="matrix(-.35 0 0 -.35 -2.1 0)" d="m0 0 5-5-17.5 5 17.5 5z" stroke="#000"/>
		</marker>
		<marker id="b" overflow="visible" orient="auto">
			<path transform="matrix(-.3 0 0 -.3 -1.8 0)" d="m0 0 5-5-17.5 5 17.5 5z" fill="#06d" stroke="#06d"/>
		</marker>
	</defs>
	<g transform="translate(-15 -11.506)" stroke="#888" stroke-dasharray="1, 1.5">
		<line x1="45" x2="120" y1="45" y2="45"/>
		<line x1="120" x2="120" y1="45" y2="150"/>
	</g>
	<g transform="translate(-15 -11.506)" stroke="#000" stroke-width="1.2">
		<line x1="45" x2="45" y1="180" y2="15" marker-end="url(#a)"/>
		<line x1="15" x2="157" y1="150" y2="150" marker-end="url(#a)" stroke-width="1.2"/>
	</g>
	<circle cx="105" cy="33.494" r="2.5" fill="#333"/>
	<line x1="30" x2="102" y1="138.49" y2="38.494" marker-end="url(#b)" stroke="#06d" stroke-linecap="round" stroke-width="2"/>
	<g transform="translate(-15 -11.506)" font-family="serif" font-size="14px" font-style="italic" text-anchor="middle">
		<text x="28" y="22">Im</text>
		<text x="160" y="166">Re</text>
		<text x="35" y="166">O</text>
		<text x="120" y="163">a</text>
		<text x="35" y="50">b</text>
		<text x="134" y="36">z=a+bi</text>
	</g>
	<text x="44.216152" y="131.29727" fill="#000000" fill-opacity=".86638" font-family="sans-serif" font-size="16px" opacity=".99" stop-color="#000000" stroke-dasharray="1, 3" xml:space="preserve"><tspan x="44.216152" y="131.29727"/></text>
	<text x="43.147266" y="134.29015" fill="#000000" fill-opacity=".86638" font-family="sans-serif" font-size="16px" opacity=".99" stop-color="#000000" stroke-dasharray="1, 3" xml:space="preserve"><tspan x="43.147266" y="134.29015">θ</tspan></text>
</svg>
