<?xml version="1.0" encoding="UTF-8" standalone="no"?>
<svg
   width="901"
   height="620.28595"
   viewBox="0 0 675.75 465.21446"
   version="1.1"
   id="svg1252"
   sodipodi:docname="completeDigraph.svg"
   inkscape:version="1.1.2 (0a00cf5339, 2022-02-04)"
   xmlns:inkscape="http://www.inkscape.org/namespaces/inkscape"
   xmlns:sodipodi="http://sodipodi.sourceforge.net/DTD/sodipodi-0.dtd"
   xmlns="http://www.w3.org/2000/svg"
   xmlns:svg="http://www.w3.org/2000/svg">
  <defs
     id="defs1256" />
  <sodipodi:namedview
     id="namedview1254"
     pagecolor="#ffffff"
     bordercolor="#666666"
     borderopacity="1.0"
     inkscape:pageshadow="2"
     inkscape:pageopacity="0.0"
     inkscape:pagecheckerboard="0"
     showgrid="false"
     fit-margin-top="0"
     fit-margin-left="0"
     fit-margin-right="0"
     fit-margin-bottom="0"
     inkscape:zoom="0.91067538"
     inkscape:cx="450.21531"
     inkscape:cy="309.66029"
     inkscape:window-width="1850"
     inkscape:window-height="1051"
     inkscape:window-x="0"
     inkscape:window-y="0"
     inkscape:window-maximized="1"
     inkscape:current-layer="svg1252" />
  <g
     id="graph0"
     class="graph"
     transform="matrix(3.7157704,0,0,3.7157704,14.863081,450.35137)">
    <polygon
       fill="#ffffff"
       stroke="transparent"
       points="177.86,-121.2 177.86,4 -4,4 -4,-121.2 "
       id="polygon1064" />
    <!-- abc -->
    <g
       id="node1"
       class="node">
      <title
         id="title1066">a0</title>
      <circle
         fill="#000000"
         stroke="#000000"
         cx="100.85"
         cy="-25.48"
         id="ellipse1068"
         r="1.8" />
    </g>
    <!-- b -->
    <g
       id="node2"
       class="node">
      <title
         id="title1071">b0</title>
      <circle
         fill="#000000"
         stroke="#000000"
         cx="172.06"
         cy="-14.84"
         id="ellipse1073"
         r="1.8" />
    </g>
    <!-- a&#45;&gt;b -->
    <g
       id="edge1"
       class="edge">
      <title
         id="title1076">a0-&gt;b0</title>
      <path
         fill="none"
         stroke="#000000"
         d="m 102.12,-27.07 c 7.18,-4.3 42.55,-0.09 60.08,5.73"
         id="path1078" />
      <polygon
         fill="#000000"
         stroke="#000000"
         points="160.75,-18.15 163.89,-24.41 171.26,-16.8 "
         id="polygon1080" />
    </g>
    <!-- b&#45;&gt;a -->
    <!-- c -->
    <!-- a&#45;&gt;c -->
    <!-- a&#45;&gt;c -->
    <!-- a&#45;&gt;c -->
    <g
       id="node3"
       class="node">
      <title
         id="title1083">a1</title>
      <circle
         fill="#000000"
         stroke="#000000"
         cx="73.849998"
         cy="-108.77"
         id="ellipse1085"
         r="1.8" />
    </g>
    <!-- b&#45;&gt;a -->
    <!-- a&#45;&gt;c -->
    <g
       id="edge3"
       class="edge">
      <title
         id="title1088">a1-&gt;b1</title>
      <path
         fill="none"
         stroke="#000000"
         d="m 74.86,-110.54 c 6.45,-5.36 42.15,-6.66 60.42,-3.61"
         id="path1090" />
      <polygon
         fill="#000000"
         stroke="#000000"
         points="134.37,-110.76 136.5,-117.43 144.96,-111.06 "
         id="polygon1092" />
    </g>
    <!-- b&#45;&gt;a -->
    <g
       id="edge2"
       class="edge">
      <title
         id="title1095">b0-&gt;a0</title>
      <path
         fill="none"
         stroke="#000000"
         d="m 170.8,-13.24 c -7.18,4.29 -42.55,0.09 -60.08,-5.74"
         id="path1097" />
      <polygon
         fill="#000000"
         stroke="#000000"
         points="112.17,-22.17 109.03,-15.91 101.66,-23.52 "
         id="polygon1099" />
    </g>
    <g
       id="node4"
       class="node">
      <title
         id="title1102">b1</title>
      <circle
         fill="#000000"
         stroke="#000000"
         cx="146.06"
         cy="-109.25"
         id="ellipse1104"
         r="1.8" />
    </g>
    <g
       id="edge4"
       class="edge">
      <title
         id="title1107">a1-&gt;c1</title>
      <path
         fill="none"
         stroke="#000000"
         d="m 75.89,-108.8 c 7.88,2.87 27.01,33.16 33.46,50.4"
         id="path1109" />
      <polygon
         fill="#000000"
         stroke="#000000"
         points="105.96,-57.52 112.81,-58.94 111.42,-48.44 "
         id="polygon1111" />
    </g>
    <g
       id="node5"
       class="node">
      <title
         id="title1114">c1</title>
      <circle
         fill="#000000"
         stroke="#000000"
         cx="110.45"
         cy="-46.84"
         id="ellipse1116"
         r="1.8" />
    </g>
    <g
       id="edge5"
       class="edge">
      <title
         id="title1119">b1-&gt;a1</title>
      <path
         fill="none"
         stroke="#000000"
         d="m 145.05,-107.48 c -6.44,5.36 -42.14,6.66 -60.41,3.61"
         id="path1121" />
      <polygon
         fill="#000000"
         stroke="#000000"
         points="85.54,-107.26 83.42,-100.59 74.95,-106.96 "
         id="polygon1123" />
    </g>
    <!-- b1&#45;&gt;c1 -->
    <g
       id="edge6"
       class="edge">
      <title
         id="title1126">b1-&gt;c1</title>
      <path
         fill="none"
         stroke="#000000"
         d="m 147.09,-107.49 c 1.42,8.26 -15.39,39.85 -27.15,53.98"
         id="path1128" />
      <polygon
         fill="#000000"
         stroke="#000000"
         points="117.5,-56.03 122.13,-50.78 112.32,-46.79 "
         id="polygon1130" />
    </g>
    <g
       id="edge7"
       class="edge">
      <title
         id="title1133">c1-&gt;a1</title>
      <path
         fill="none"
         stroke="#000000"
         d="m 108.41,-46.82 c -7.88,-2.86 -27,-33.15 -33.46,-50.39"
         id="path1135" />
      <polygon
         fill="#000000"
         stroke="#000000"
         points="78.34,-98.09 71.49,-96.67 72.88,-107.17 "
         id="polygon1137" />
    </g>
    <!-- a -->
    <!-- b1&#45;&gt;c1 -->
    <g
       id="edge8"
       class="edge">
      <title
         id="title1140">c1-&gt;b1</title>
      <path
         fill="none"
         stroke="#000000"
         d="m 109.42,-48.6 c -1.42,-8.26 15.38,-39.84 27.15,-53.97"
         id="path1142" />
      <polygon
         fill="#000000"
         stroke="#000000"
         points="139.01,-100.06 134.38,-105.31 144.19,-109.3 "
         id="polygon1144" />
    </g>
    <!-- c1&#45;&gt;a1 -->
    <!-- b -->
    <!-- c1&#45;&gt;a1 -->
    <!-- c1&#45;&gt;b1 -->
    <!-- c1&#45;&gt;b1 -->
    <g
       id="node6"
       class="node">
      <title
         id="title1147">a2</title>
      <circle
         fill="#000000"
         stroke="#000000"
         cx="1.85"
         cy="-38.470001"
         id="ellipse1149"
         r="1.8" />
    </g>
    <!-- a2&#45;&gt;b1 -->
    <g
       id="node7"
       class="node">
      <title
         id="title1152">b2</title>
      <circle
         fill="#000000"
         stroke="#000000"
         cx="87.790001"
         cy="-51.189999"
         id="ellipse1154"
         r="1.8" />
    </g>
    <!-- a2&#45;&gt;b2 -->
    <g
       id="edge9"
       class="edge">
      <title
         id="title1157">a2-&gt;b2</title>
      <path
         fill="none"
         stroke="#000000"
         d="m 2.59,-40.18 c 6.4,-6.67 52.3,-14.48 73.95,-14.02"
         id="path1159" />
      <polygon
         fill="#000000"
         stroke="#000000"
         points="76.06,-50.73 77.12,-57.65 86.48,-52.68 "
         id="polygon1161" />
    </g>
    <!-- a2&#45;&gt;c -->
    <g
       id="node8"
       class="node">
      <title
         id="title1164">c2</title>
      <circle
         fill="#000000"
         stroke="#000000"
         cx="51.150002"
         cy="-1.84"
         id="ellipse1166"
         r="1.8" />
    </g>
    <!-- a2&#45;&gt;c2 -->
    <g
       id="node9"
       class="node">
      <title
         id="title1169">d2</title>
      <circle
         fill="#000000"
         stroke="#000000"
         cx="38.41"
         cy="-87.849998"
         id="ellipse1171"
         r="1.8" />
    </g>
    <g
       id="edge10"
       class="edge">
      <title
         id="title1174">a2-&gt;c2</title>
      <path
         fill="none"
         stroke="#000000"
         d="m 3.6,-39.37 c 7.33,-0.94 30.92,15.13 42.04,26.86"
         id="path1176" />
      <polygon
         fill="#000000"
         stroke="#000000"
         points="42.99,-10.18 48.79,-14.1 51.49,-3.85 "
         id="polygon1178" />
    </g>
    <!-- a2&#45;&gt;d2 -->
    <g
       id="edge11"
       class="edge">
      <title
         id="title1181">a2-&gt;d2</title>
      <path
         fill="none"
         stroke="#000000"
         d="M 0.95,-40.22 C 0,-47.55 16.03,-71.17 27.75,-82.32"
         id="path1183" />
      <polygon
         fill="#000000"
         stroke="#000000"
         points="30.08,-79.68 26.16,-85.48 36.4,-88.19 "
         id="polygon1185" />
    </g>
    <g
       id="edge12"
       class="edge">
      <title
         id="title1188">b2-&gt;a2</title>
      <path
         fill="none"
         stroke="#000000"
         d="M 87.06,-49.48 C 80.65,-42.82 34.76,-35 13.1,-35.47"
         id="path1190" />
      <polygon
         fill="#000000"
         stroke="#000000"
         points="13.58,-38.93 12.52,-32.01 3.17,-36.98 "
         id="polygon1192" />
    </g>
    <g
       id="edge13"
       class="edge">
      <title
         id="title1195">b2-&gt;c2</title>
      <path
         fill="none"
         stroke="#000000"
         d="m 88.69,-49.44 c 0.94,7.33 -15.13,30.94 -26.87,42.08"
         id="path1197" />
      <polygon
         fill="#000000"
         stroke="#000000"
         points="59.48,-10 63.4,-4.2 53.16,-1.5 "
         id="polygon1199" />
    </g>
    <!-- d -->
    <g
       id="edge15"
       class="edge">
      <title
         id="title1202">c2-&gt;a2</title>
      <path
         fill="none"
         stroke="#000000"
         d="M 49.4,-0.94 C 42.07,0 18.48,-16.07 7.36,-27.8"
         id="path1204" />
      <polygon
         fill="#000000"
         stroke="#000000"
         points="10.01,-30.13 4.21,-26.21 1.51,-36.46 "
         id="polygon1206" />
    </g>
    <g
       id="edge14"
       class="edge">
      <title
         id="title1209">b2-&gt;d2</title>
      <path
         fill="none"
         stroke="#000000"
         d="M 86.04,-50.29 C 78.71,-49.35 55.08,-65.43 43.93,-77.17"
         id="path1211" />
      <polygon
         fill="#000000"
         stroke="#000000"
         points="46.57,-79.52 40.77,-75.6 38.07,-85.84 "
         id="polygon1213" />
    </g>
    <g
       id="edge16"
       class="edge">
      <title
         id="title1216">c2-&gt;b2</title>
      <path
         fill="none"
         stroke="#000000"
         d="m 50.25,-3.59 c -0.94,-7.33 15.13,-30.94 26.87,-42.09"
         id="path1218" />
      <polygon
         fill="#000000"
         stroke="#000000"
         points="79.46,-43.03 75.53,-48.83 85.78,-51.53 "
         id="polygon1220" />
    </g>
    <!-- c -->
    <g
       id="edge17"
       class="edge">
      <title
         id="title1223">c2-&gt;d2</title>
      <path
         fill="none"
         stroke="#000000"
         d="M 49.44,-2.57 C 42.77,-8.99 34.94,-54.92 35.41,-76.6"
         id="path1225" />
      <polygon
         fill="#000000"
         stroke="#000000"
         points="38.87,-76.12 31.95,-77.18 36.92,-86.54 "
         id="polygon1227" />
    </g>
    <!-- a -->
    <g
       id="edge18"
       class="edge">
      <title
         id="title1230">d2-&gt;a2</title>
      <path
         fill="none"
         stroke="#000000"
         d="m 39.31,-86.1 c 0.95,7.33 -15.08,30.95 -26.79,42.1"
         id="path1232" />
      <polygon
         fill="#000000"
         stroke="#000000"
         points="10.18,-46.64 14.11,-40.85 3.87,-38.13 "
         id="polygon1234" />
    </g>
    <!-- b -->
    <g
       id="edge19"
       class="edge">
      <title
         id="title1237">d2-&gt;b2</title>
      <path
         fill="none"
         stroke="#000000"
         d="m 40.16,-88.75 c 7.34,-0.94 30.96,15.14 42.11,26.88"
         id="path1239" />
      <polygon
         fill="#000000"
         stroke="#000000"
         points="79.63,-59.53 85.43,-63.45 88.13,-53.2 "
         id="polygon1241" />
    </g>
    <!-- d -->
    <g
       id="edge20"
       class="edge">
      <title
         id="title1244">d2-&gt;c2</title>
      <path
         fill="none"
         stroke="#000000"
         d="m 40.12,-87.12 c 6.67,6.41 14.49,52.35 14.03,74.02"
         id="path1246" />
      <polygon
         fill="#000000"
         stroke="#000000"
         points="50.68,-13.57 57.6,-12.51 52.63,-3.15 "
         id="polygon1248" />
    </g>
  </g>
</svg>
