<?xml version="1.0" encoding="UTF-8" standalone="no"?><!DOCTYPE svg PUBLIC "-//W3C//DTD SVG 1.1//EN" "http://www.w3.org/Graphics/SVG/1.1/DTD/svg11.dtd"><!-- Generated by graphviz version 2.40.1 (20161225.0304)
 --><!-- Title: G Pages: 1 --><svg xmlns="http://www.w3.org/2000/svg" xmlns:xlink="http://www.w3.org/1999/xlink" width="278pt" height="133pt" viewBox="0.00 0.00 278.00 132.80">
<g id="graph0" class="graph" transform="scale(1 1) rotate(0) translate(4 128.8)">
<title>G</title>
<polygon fill="#ffffff" stroke="transparent" points="-4,4 -4,-128.8 274,-128.8 274,4 -4,4"/>
<!-- a -->
<g id="node1" class="node">
<title>a</title>
<ellipse fill="none" stroke="#000000" cx="27" cy="-90" rx="27" ry="18"/>
<text text-anchor="middle" x="27" y="-85.8" font-family="Times,serif" font-size="14.00" fill="#000000">a</text>
</g>
<!-- b -->
<g id="node2" class="node">
<title>b</title>
<ellipse fill="none" stroke="#000000" cx="27" cy="-18" rx="27" ry="18"/>
<text text-anchor="middle" x="27" y="-13.8" font-family="Times,serif" font-size="14.00" fill="#000000">b</text>
</g>
<!-- a&#45;&gt;b -->
<g id="edge1" class="edge">
<title>a-&gt;b</title>
<path fill="none" stroke="#000000" d="M21.0843,-72.2022C20.2798,-64.1807 20.0571,-54.5231 20.4162,-45.5957"/>
<polygon fill="#000000" stroke="#000000" points="23.9097,-45.8099 21.105,-35.593 16.9262,-45.3289 23.9097,-45.8099"/>
</g>
<!-- c -->
<g id="node3" class="node">
<title>c</title>
<ellipse fill="none" stroke="#000000" cx="99" cy="-18" rx="27" ry="18"/>
<text text-anchor="middle" x="99" y="-13.8" font-family="Times,serif" font-size="14.00" fill="#000000">c</text>
</g>
<!-- a&#45;&gt;c -->
<g id="edge3" class="edge">
<title>a-&gt;c</title>
<path fill="none" stroke="#000000" d="M42.2693,-74.7307C52.197,-64.803 65.3153,-51.6847 76.4363,-40.5637"/>
<polygon fill="#000000" stroke="#000000" points="79.1564,-42.7933 83.7527,-33.2473 74.2067,-37.8436 79.1564,-42.7933"/>
</g>
<!-- b&#45;&gt;a -->
<g id="edge2" class="edge">
<title>b-&gt;a</title>
<path fill="none" stroke="#000000" d="M32.895,-35.593C33.7094,-43.5865 33.942,-53.2363 33.5928,-62.1759"/>
<polygon fill="#000000" stroke="#000000" points="30.0976,-61.9891 32.9157,-72.2022 37.0817,-62.4608 30.0976,-61.9891"/>
</g>
<!-- aa -->
<g id="node4" class="node">
<title>aa</title>
<ellipse fill="none" stroke="#000000" cx="207" cy="-90" rx="27" ry="18"/>
<text text-anchor="middle" x="207" y="-85.8" font-family="Times,serif" font-size="14.00" fill="#000000">a</text>
<text text-anchor="middle" x="171.25" y="-112.2" font-family="Times,serif" font-size="14.00" fill="#000000">1,6</text>
</g>
<!-- bb -->
<g id="node5" class="node">
<title>bb</title>
<ellipse fill="none" stroke="#000000" cx="171" cy="-18" rx="27" ry="18"/>
<text text-anchor="middle" x="171" y="-13.8" font-family="Times,serif" font-size="14.00" fill="#000000">b</text>
<text text-anchor="middle" x="135.25" y="-40.2" font-family="Times,serif" font-size="14.00" fill="#000000">2,3</text>
</g>
<!-- aa&#45;&gt;bb -->
<g id="edge4" class="edge">
<title>aa-&gt;bb</title>
<path fill="none" stroke="#000000" d="M198.2854,-72.5708C194.0403,-64.0807 188.8464,-53.6929 184.1337,-44.2674"/>
<polygon fill="#000000" stroke="#000000" points="187.237,-42.6477 179.6343,-35.2687 180.976,-45.7782 187.237,-42.6477"/>
</g>
<!-- cc -->
<g id="node6" class="node">
<title>cc</title>
<ellipse fill="none" stroke="#000000" cx="243" cy="-18" rx="27" ry="18"/>
<text text-anchor="middle" x="243" y="-13.8" font-family="Times,serif" font-size="14.00" fill="#000000">c</text>
<text text-anchor="middle" x="207.25" y="-40.2" font-family="Times,serif" font-size="14.00" fill="#000000">4,5</text>
</g>
<!-- aa&#45;&gt;cc -->
<g id="edge5" class="edge">
<title>aa-&gt;cc</title>
<path fill="none" stroke="#000000" d="M215.7146,-72.5708C219.9597,-64.0807 225.1536,-53.6929 229.8663,-44.2674"/>
<polygon fill="#000000" stroke="#000000" points="233.024,-45.7782 234.3657,-35.2687 226.763,-42.6477 233.024,-45.7782"/>
</g>
</g>
</svg>