<?xml version="1.0" encoding="UTF-8" standalone="no"?><!DOCTYPE svg PUBLIC "-//W3C//DTD SVG 1.1//EN" "http://www.w3.org/Graphics/SVG/1.1/DTD/svg11.dtd"><!-- Generated by graphviz version 2.40.1 (20161225.0304)
 --><!-- Title: G Pages: 1 --><svg xmlns="http://www.w3.org/2000/svg" xmlns:xlink="http://www.w3.org/1999/xlink" width="316pt" height="228pt" viewBox="0.00 0.00 316.00 227.60">
<g id="graph0" class="graph" transform="scale(1 1) rotate(0) translate(4 223.6)">
<title>G</title>
<polygon fill="#ffffff" stroke="transparent" points="-4,4 -4,-223.6 312,-223.6 312,4 -4,4"/>
<g id="clust1" class="cluster">
<title>cluster_d</title>
<polygon fill="none" stroke="#000000" points="8,-8 8,-211.6 150,-211.6 150,-8 8,-8"/>
<text text-anchor="middle" x="79" y="-195" font-family="Times,serif" font-size="14.00" fill="#000000">d</text>
</g>
<g id="clust2" class="cluster">
<title>cluster_nd</title>
<polygon fill="none" stroke="#000000" points="158,-8 158,-211.6 300,-211.6 300,-8 158,-8"/>
<text text-anchor="middle" x="229" y="-195" font-family="Times,serif" font-size="14.00" fill="#000000">nd</text>
</g>
<!-- a -->
<g id="node1" class="node">
<title>a</title>
<ellipse fill="none" stroke="#000000" cx="79" cy="-160.8" rx="27" ry="18"/>
<text text-anchor="middle" x="79" y="-156.6" font-family="Times,serif" font-size="14.00" fill="#000000">a</text>
</g>
<!-- b -->
<g id="node2" class="node">
<title>b</title>
<ellipse fill="none" stroke="#000000" cx="43" cy="-34" rx="27" ry="18"/>
<text text-anchor="middle" x="43" y="-29.8" font-family="Times,serif" font-size="14.00" fill="#000000">b</text>
</g>
<!-- a&#45;&gt;b -->
<g id="edge1" class="edge">
<title>a-&gt;b</title>
<path fill="none" stroke="#000000" d="M73.9184,-142.9016C67.915,-121.756 57.8593,-86.3376 50.8517,-61.6553"/>
<polygon fill="#000000" stroke="#000000" points="54.1539,-60.4712 48.0557,-51.8074 47.42,-62.3831 54.1539,-60.4712"/>
<text text-anchor="middle" x="65.5" y="-93.2" font-family="Times,serif" font-size="14.00" fill="#000000">0</text>
</g>
<!-- c -->
<g id="node3" class="node">
<title>c</title>
<ellipse fill="none" stroke="#000000" cx="115" cy="-34" rx="27" ry="18"/>
<text text-anchor="middle" x="115" y="-29.8" font-family="Times,serif" font-size="14.00" fill="#000000">c</text>
</g>
<!-- a&#45;&gt;c -->
<g id="edge2" class="edge">
<title>a-&gt;c</title>
<path fill="none" stroke="#000000" d="M84.0816,-142.9016C90.085,-121.756 100.1407,-86.3376 107.1483,-61.6553"/>
<polygon fill="#000000" stroke="#000000" points="110.58,-62.3831 109.9443,-51.8074 103.8461,-60.4712 110.58,-62.3831"/>
<text text-anchor="middle" x="101.5" y="-93.2" font-family="Times,serif" font-size="14.00" fill="#000000">1</text>
</g>
<!-- aa -->
<g id="node4" class="node">
<title>aa</title>
<ellipse fill="none" stroke="#000000" cx="229" cy="-160.8" rx="27" ry="18"/>
<text text-anchor="middle" x="229" y="-156.6" font-family="Times,serif" font-size="14.00" fill="#000000">a</text>
</g>
<!-- bb -->
<g id="node5" class="node">
<title>bb</title>
<ellipse fill="none" stroke="#000000" cx="193" cy="-34" rx="27" ry="18"/>
<text text-anchor="middle" x="193" y="-29.8" font-family="Times,serif" font-size="14.00" fill="#000000">b</text>
</g>
<!-- aa&#45;&gt;bb -->
<g id="edge3" class="edge">
<title>aa-&gt;bb</title>
<path fill="none" stroke="#000000" d="M223.9184,-142.9016C217.915,-121.756 207.8593,-86.3376 200.8517,-61.6553"/>
<polygon fill="#000000" stroke="#000000" points="204.1539,-60.4712 198.0557,-51.8074 197.42,-62.3831 204.1539,-60.4712"/>
<text text-anchor="middle" x="215.1073" y="-93.2" font-family="Times,serif" font-size="14.00" fill="#000000">?</text>
</g>
<!-- cc -->
<g id="node6" class="node">
<title>cc</title>
<ellipse fill="none" stroke="#000000" cx="265" cy="-34" rx="27" ry="18"/>
<text text-anchor="middle" x="265" y="-29.8" font-family="Times,serif" font-size="14.00" fill="#000000">c</text>
</g>
<!-- aa&#45;&gt;cc -->
<g id="edge4" class="edge">
<title>aa-&gt;cc</title>
<path fill="none" stroke="#000000" d="M234.0816,-142.9016C240.085,-121.756 250.1407,-86.3376 257.1483,-61.6553"/>
<polygon fill="#000000" stroke="#000000" points="260.58,-62.3831 259.9443,-51.8074 253.8461,-60.4712 260.58,-62.3831"/>
<text text-anchor="middle" x="251.1073" y="-93.2" font-family="Times,serif" font-size="14.00" fill="#000000">?</text>
</g>
</g>
</svg>