<?xml version="1.0" encoding="UTF-8"?>
<svg width="466.79" height="354.26" version="1.1" viewBox="0 0 466.79 354.26" xmlns="http://www.w3.org/2000/svg">
 <g transform="translate(-193.22 -47.218)">
  <g fill="#0003c8" stroke="#000" stroke-width=".5">
   <circle cx="285.35" cy="100.8" r="3"/>
   <circle cx="228.38" cy="157.42" r="3"/>
   <circle cx="256.86" cy="214.04" r="3"/>
   <circle cx="314.2" cy="185.91" r="3"/>
   <circle cx="353.01" cy="157.42" r="3"/>
   <circle cx="370.11" cy="214.75" r="3"/>
   <circle cx="285.35" cy="294.52" r="3"/>
   <circle cx="227.66" cy="305.56" r="3"/>
   <circle cx="355.5" cy="342.6" r="3"/>
   <circle cx="455.21" cy="242.89" r="3"/>
   <circle cx="455.21" cy="171.67" r="3"/>
   <circle cx="625.43" cy="158.13" r="3"/>
   <circle cx="568.46" cy="228.64" r="3"/>
   <circle cx="541.04" cy="271.73" r="3"/>
   <circle cx="483.7" cy="345.44" r="3"/>
   <circle cx="625.08" cy="276.36" r="3"/>
   <circle cx="569.17" cy="339.75" r="3"/>
  </g>
  <g fill="none">
   <g stroke="#000" stroke-dasharray="3, 1">
    <path d="m623.09 278.61-51.94 58.887"/>
    <path d="m622.38 277.68-135.98 66.45"/>
    <path d="m485.54 343.08 53.649-68.978"/>
    <path d="m622.08 276.2-78.05-4.2994"/>
    <path d="m566.85 231.17-24.199 38.027"/>
    <path d="m623.56 160.47-56.71 70.7"/>
    <path d="m458.21 171.47 165.35-10.993"/>
    <path d="m565.78 227.29-107.88-54.28"/>
    <path d="m458.19 242.47 107.59-15.174"/>
    <path d="m455.21 174.67v65.221"/>
    <path d="m538.21 270.73-80.022-28.264"/>
    <path d="m230.61 305 51.796-9.9116"/>
    <path d="m287.83 296.22 65.204 44.683"/>
    <path d="m284.35 291.69-26.486-74.824"/>
    <path d="m259.56 212.72 51.947-25.489"/>
    <path d="m316.86 187.28 50.577 26.094"/>
    <path d="m369.25 211.88-15.379-51.583"/>
    <path d="m350.71 155.5-63.059-52.77"/>
    <path d="m283.22 102.91-52.721 52.392"/>
    <path d="m229.72 160.1 25.792 51.261"/>
   </g>
   <g stroke="#ff0800" stroke-width="1px">
    <path d="m288.31 101.3 334.16 56.336"/>
    <path d="m452.24 171.25-96.26-13.416"/>
    <path d="m372.95 215.7 79.412 26.249"/>
    <path d="m357.63 340.47 95.467-95.467"/>
    <path d="m480.7 345.38-122.2-2.7156"/>
   </g>
   <ellipse cx="292.01" cy="224.35" rx="98.285" ry="176.63" stroke="#0600ff"/>
   <ellipse cx="538.08" cy="249.99" rx="121.43" ry="133.9" stroke="#73ff00"/>
  </g>
 </g>
</svg>
