<?xml version="1.0" encoding="UTF-8"?>
<svg width="502.07" height="634.67" version="1.1" viewBox="0 0 376.55 476" xmlns="http://www.w3.org/2000/svg">
 <g class="graph" transform="translate(3.9997 472)">
  <title>G</title>
  <polygon points="-4 4 -4 -472 372.55 -472 372.55 4" fill="#fff" stroke="transparent"/>
  <g class="node">
   <title>np</title>
   <ellipse cx="136" cy="-450" rx="48.69" ry="18" fill="none" stroke="#000"/>
   <text x="136" y="-445.79999" font-family="Times, serif" font-size="14px" text-anchor="middle">All of NP</text>
  </g>
  <g class="node">
   <title>SAT</title>
   <ellipse cx="136" cy="-378" rx="27" ry="18" fill="none" stroke="#000"/>
   <text x="136" y="-373.79999" font-family="Times, serif" font-size="14px" text-anchor="middle">?</text>
  </g>
  <g class="node">
   <title>3SAT</title>
   <ellipse cx="136" cy="-306" rx="27" ry="18" fill="none" stroke="#000"/>
   <text x="136" y="-301.79999" font-family="Times, serif" font-size="14px" text-anchor="middle">?</text>
  </g>
  <g class="edge">
   <title>np-&gt;SAT</title>
   <path d="m136-431.7v25.59" fill="none" stroke="#000"/>
   <polygon points="136 -396.1 132.5 -406.1 139.5 -406.1" stroke="#000"/>
  </g>
  <g class="edge">
   <title>SAT-&gt;3SAT</title>
   <path d="m136-359.7v25.59" fill="none" stroke="#000"/>
   <polygon points="136 -324.1 132.5 -334.1 139.5 -334.1" stroke="#000"/>
  </g>
  <g class="node">
   <title>VC</title>
   <ellipse cx="27" cy="-162" rx="27" ry="18" fill="none" stroke="#000"/>
   <text x="27" y="-157.8" font-family="Times, serif" font-size="14px" text-anchor="middle">?</text>
  </g>
  <g class="node">
   <title>Clique</title>
   <ellipse cx="99" cy="-162" rx="27" ry="18" fill="none" stroke="#000"/>
   <text x="99" y="-157.8" font-family="Times, serif" font-size="14px" text-anchor="middle">?</text>
  </g>
  <g class="node">
   <title>IS</title>
   <ellipse cx="83" cy="-234" rx="27" ry="18" fill="none" stroke="#000"/>
   <text x="83" y="-229.8" font-family="Times, serif" font-size="14px" text-anchor="middle">?</text>
  </g>
  <g class="edge">
   <title>3SAT-&gt;IS</title>
   <path d="m124.24-289.46c-6.86 9.06-15.66 20.67-23.36 30.85" fill="none" stroke="#000"/>
   <polygon points="94.73 -250.49 97.98 -260.58 103.56 -256.35" stroke="#000"/>
  </g>
  <g class="edge">
   <title>IS-&gt;VC</title>
   <path d="m70.85-217.81c-7.41 9.26-17.03 21.29-25.37 31.72" fill="none" stroke="#000"/>
   <polygon points="39.13 -178.16 42.64 -188.15 48.11 -183.78" stroke="#000"/>
  </g>
  <g class="edge">
   <title>3SAT-&gt;3DM</title>
   <path d="m147.98-289.46c6.7 8.68 15.21 19.71 22.82 29.57" fill="none" stroke="#000"/>
   <polygon points="176.92 -251.96 168.04 -257.74 173.58 -262.02" stroke="#000"/>
  </g>
  <g class="edge">
   <title>IS-&gt;Clique</title>
   <path d="m86.87-216.05c1.78 7.79 3.94 17.23 5.94 25.97" fill="none" stroke="#000"/>
   <polygon points="95.05 -180.28 89.41 -189.24 96.24 -190.8" stroke="#000"/>
  </g>
  <g class="node">
   <title>3DM</title>
   <ellipse cx="190" cy="-234" rx="62.03" ry="18" fill="none" stroke="#000"/>
   <text x="190" y="-229.8" font-family="Times, serif" font-size="14px" text-anchor="middle">3D Matching</text>
  </g>
  <g class="node">
   <title>ZOE</title>
   <ellipse cx="190" cy="-162" rx="29.62" ry="18" fill="none" stroke="#000"/>
   <text x="190" y="-157.8" font-family="Times, serif" font-size="14px" text-anchor="middle">ZOE</text>
  </g>
  <g class="node">
   <title>SUBSUM</title>
   <ellipse cx="88" cy="-90" rx="56.83" ry="18" fill="none" stroke="#000"/>
   <text x="88" y="-85.800003" font-family="Times, serif" font-size="14px" text-anchor="middle">Subset Sum</text>
  </g>
  <g class="node">
   <title>ILP</title>
   <ellipse cx="190" cy="-90" rx="27" ry="18" fill="none" stroke="#000"/>
   <text x="190" y="-85.800003" font-family="Times, serif" font-size="14px" text-anchor="middle">ILP</text>
  </g>
  <g class="edge">
   <title>3DM-&gt;ZOE</title>
   <path d="m190-215.7v25.59" fill="none" stroke="#000"/>
   <polygon points="190 -180.1 186.5 -190.1 193.5 -190.1" stroke="#000"/>
  </g>
  <g class="node">
   <title>Rudrata</title>
   <ellipse cx="302" cy="-90" rx="66.59" ry="18" fill="none" stroke="#000"/>
   <text x="302" y="-85.800003" font-family="Times, serif" font-size="14px" text-anchor="middle">Rudrata Cycle</text>
  </g>
  <g class="edge">
   <title>ZOE-&gt;ILP</title>
   <path d="m190-143.7v25.59" fill="none" stroke="#000"/>
   <polygon points="190 -108.1 186.5 -118.1 193.5 -118.1" stroke="#000"/>
  </g>
  <g class="edge">
   <title>Rudrata-&gt;TSP</title>
   <path d="m302-71.7v25.59" fill="none" stroke="#000"/>
   <polygon points="302 -36.1 298.5 -46.1 305.5 -46.1" stroke="#000"/>
  </g>
  <g class="node">
   <title>TSP</title>
   <ellipse cx="302" cy="-18" rx="27.85" ry="18" fill="none" stroke="#000"/>
   <text x="302" y="-13.8" font-family="Times, serif" font-size="14px" text-anchor="middle">TSP</text>
  </g>
  <g class="edge">
   <title>ZOE-&gt;SUBSUM</title>
   <path d="m170.81-147.83c-14.54 9.98-34.84 23.91-51.7 35.48" fill="none" stroke="#000"/>
   <polygon points="110.66 -106.55 116.93 -115.1 120.89 -109.32" stroke="#000"/>
  </g>
  <g class="edge">
   <title>ZOE-&gt;Rudrata</title>
   <path d="m210.02-148.49c16.08 10.05 39.02 24.39 57.97 36.23" fill="none" stroke="#000"/>
   <polygon points="276.65 -106.85 266.31 -109.18 270.02 -115.11" stroke="#000"/>
  </g>
 </g>
</svg>
