<?xml version="1.0" encoding="UTF-8"?>
<svg width="531.69" height="918" version="1.1" viewBox="0 0 398.77 688.5" xmlns="http://www.w3.org/2000/svg">
	<g class="graph" transform="matrix(2.0738 0 0 2.0738 8.2952 680.2)">
		<polygon points="188.29 -328 188.29 4 -4 4 -4 -328" fill="#fff" stroke="transparent"/>
		<g class="node">
			<title>B</title>
			<ellipse cx="83.29" cy="-306" rx="27" ry="18" fill="none" stroke="#000"/>
			<text x="83.290001" y="-301.79999" font-family="Times, serif" font-size="14px" text-anchor="middle">B</text>
		</g>
		<g class="node">
			<title>A</title>
			<ellipse cx="47.29" cy="-234" rx="27" ry="18" fill="none" stroke="#000"/>
			<text x="47.290001" y="-229.8" font-family="Times, serif" font-size="14px" text-anchor="middle">A</text>
		</g>
		<g class="edge">
			<title>B-&gt;A</title>
			<path d="m74.94-288.76c-4.36 8.48-9.8 19.05-14.69 28.56" fill="none" stroke="#000"/>
			<polygon points="57.05 -261.64 63.28 -258.44 55.59 -251.15" stroke="#000"/>
		</g>
		<g class="node">
			<title>C</title>
			<ellipse cx="119.29" cy="-234" rx="27" ry="18" fill="none" stroke="#000"/>
			<text x="119.29" y="-229.8" font-family="Times, serif" font-size="14px" text-anchor="middle">C</text>
		</g>
		<g class="edge">
			<title>B-&gt;C</title>
			<path d="m91.64-288.76c4.36 8.48 9.79 19.05 14.69 28.56" fill="none" stroke="#000"/>
			<polygon points="103.3 -258.44 109.52 -261.64 110.98 -251.15" stroke="#000"/>
		</g>
		<g class="edge">
			<title>B-&gt;E</title>
			<path d="m61.19-295.61c-17.09 8.6-39.54 23.11-49.9 43.61-21.98 43.48-5.55 101.77 7.39 134.96" fill="none" stroke="#f00"/>
			<polygon points="15.52 -115.52 22 -118.17 22.54 -107.59" fill="#f00" stroke="#f00"/>
		</g>
		<g class="node">
			<title>D</title>
			<ellipse cx="85.29" cy="-162" rx="27" ry="18" fill="none" stroke="#000"/>
			<text x="85.290001" y="-157.8" font-family="Times, serif" font-size="14px" text-anchor="middle">D</text>
		</g>
		<g class="edge">
			<title>A-&gt;D</title>
			<path d="m56.1-216.76c4.61 8.48 10.34 19.05 15.51 28.56" fill="none" stroke="#000"/>
			<polygon points="68.67 -186.27 74.83 -189.61 76.52 -179.15" stroke="#000"/>
		</g>
		<g class="node">
			<title>E</title>
			<ellipse cx="30.29" cy="-90" rx="27" ry="18" fill="none" stroke="#000"/>
			<text x="30.290001" y="-85.800003" font-family="Times, serif" font-size="14px" text-anchor="middle">E</text>
		</g>
		<g class="edge">
			<title>D-&gt;E</title>
			<path d="m73.35-145.81c-7.28 9.26-16.73 21.29-24.92 31.72" fill="none" stroke="#000"/>
			<polygon points="45.62 -116.18 51.13 -111.86 42.2 -106.16" stroke="#000"/>
		</g>
		<g class="node">
			<title>H</title>
			<ellipse cx="140.29" cy="-90" rx="27" ry="18" fill="none" stroke="#000"/>
			<text x="140.28999" y="-85.800003" font-family="Times, serif" font-size="14px" text-anchor="middle">H</text>
		</g>
		<g class="edge">
			<title>D-&gt;H</title>
			<path d="m97.22-145.81c7.28 9.26 16.73 21.29 24.92 31.72" fill="none" stroke="#000"/>
			<polygon points="119.45 -111.86 124.95 -116.18 128.38 -106.16" stroke="#000"/>
		</g>
		<g class="node">
			<title>G</title>
			<ellipse cx="85.29" cy="-18" rx="27" ry="18" fill="none" stroke="#000"/>
			<text x="85.290001" y="-13.8" font-family="Times, serif" font-size="14px" text-anchor="middle">G</text>
		</g>
		<g class="edge">
			<title>D-&gt;G</title>
			<path d="m85.29-143.87v97.48" fill="none" stroke="#f00"/>
			<polygon points="81.79 -46.19 88.79 -46.19 85.29 -36.19" fill="#f00" stroke="#f00"/>
		</g>
		<g class="edge">
			<title>E-&gt;G</title>
			<path d="m42.22-73.81c7.28 9.26 16.73 21.29 24.92 31.72" fill="none" stroke="#000"/>
			<polygon points="64.45 -39.86 69.95 -44.18 73.38 -34.16" stroke="#000"/>
		</g>
		<g class="node">
			<title>F</title>
			<ellipse cx="157.29" cy="-162" rx="27" ry="18" fill="none" stroke="#000"/>
			<text x="157.28999" y="-157.8" font-family="Times, serif" font-size="14px" text-anchor="middle">F</text>
		</g>
		<g class="edge">
			<title>C-&gt;F</title>
			<path d="m128.1-216.76c4.61 8.48 10.34 19.05 15.51 28.56" fill="none" stroke="#000"/>
			<polygon points="140.67 -186.27 146.83 -189.61 148.52 -179.15" stroke="#000"/>
		</g>
		<g class="edge">
			<title>E-&gt;A</title>
			<path d="m32.35-108.19c2.9-24.23 8.22-68.7 11.67-97.49" fill="none" stroke="#00f"/>
			<polygon points="47.52 -205.53 40.57 -206.36 45.24 -215.87" fill="#00f" stroke="#00f"/>
		</g>
		<g class="edge">
			<title>H-&gt;G</title>
			<path d="m128.35-73.81c-7.28 9.26-16.73 21.29-24.92 31.72" fill="none" stroke="#0ff"/>
			<polygon points="100.62 -44.18 106.13 -39.86 97.2 -34.16" fill="#0ff" stroke="#0ff"/>
		</g>
		<g class="edge">
			<title>F-&gt;H</title>
			<path d="m153.17-144.05c-1.89 7.79-4.18 17.23-6.31 25.97" fill="none" stroke="#0ff"/>
			<polygon points="143.44 -118.82 150.24 -117.17 144.48 -108.28" fill="#0ff" stroke="#0ff"/>
		</g>
		<g class="edge">
			<title>F-&gt;B</title>
			<path d="m161.11-179.83c3.34-18.74 6.01-49.41-5.82-72.17-8.72-16.77-25.42-29.57-40.55-38.39" fill="none" stroke="#00f"/>
			<polygon points="116.06 -293.65 112.71 -287.51 105.61 -295.37" fill="#00f" stroke="#00f"/>
		</g>
	</g>
</svg>
